<svg xmlns="http://www.w3.org/2000/svg" xmlns:xlink="http://www.w3.org/1999/xlink" width="1440" height="7058" viewBox="0 0 1440 7058">
  <defs>
    <clipPath id="clip-Icons">
      <rect width="1440" height="7058"/>
    </clipPath>
  </defs>
  <g id="Icons" clip-path="url(#clip-Icons)">
    <rect width="1440" height="7058" fill="#fff"/>
    <text id="Icons-2" data-name="Icons" transform="translate(295 130)" fill="rgba(0,0,0,0.87)" font-size="24" font-family="Lato-Bold, Lato" font-weight="700"><tspan x="0" y="0">Icons</tspan></text>
    <text transform="translate(295 142)" fill="rgba(0,0,0,0.6)" font-size="16" font-family="Lato-Regular, Lato"><tspan x="0" y="16">The icons in Calbright College Design Style Guideline are embedded SVG icons. All icons can be scaled, coloured and </tspan><tspan x="0" y="38">adjusted to your specific needs. The label below each icon represents the class name to be used in the front-end.</tspan></text>
    <path d="M7.25,15H5.75V10.5H4.25V9h3Zm6.5-1.5h-3v-1h2a1,1,0,0,0,1-1V10a1,1,0,0,0-1-1H9.25v1.5h3v1h-2a1,1,0,0,0-1,1V15h4.5Zm6,.5V10a1,1,0,0,0-1-1h-3.5v1.5h3v1h-2v1h2v1h-3V15h3.5A1,1,0,0,0,19.75,14Z" transform="translate(195 366)"/>
    <path d="M55.525,21.48A10.487,10.487,0,0,1,49.555,13h-1.5a11.994,11.994,0,0,0,11.95,11l.66-.03-3.81-3.81Zm.89-6.52a1.669,1.669,0,0,1-.52-.08,1.069,1.069,0,0,1-.4-.24.991.991,0,0,1-.26-.37,1.193,1.193,0,0,1-.09-.47h-1.3a2.046,2.046,0,0,0,.21.95,2.211,2.211,0,0,0,.56.69,2.526,2.526,0,0,0,.82.41,3.016,3.016,0,0,0,.96.15,3.373,3.373,0,0,0,1.03-.15,2.438,2.438,0,0,0,.83-.44,1.978,1.978,0,0,0,.55-.72,2.336,2.336,0,0,0,.2-.97,2.1,2.1,0,0,0-.07-.56,1.67,1.67,0,0,0-.23-.51,1.8,1.8,0,0,0-.4-.43,2.056,2.056,0,0,0-.61-.31,2.1,2.1,0,0,0,.52-.33,2.066,2.066,0,0,0,.37-.42,1.762,1.762,0,0,0,.22-.46,1.594,1.594,0,0,0,.07-.48,2.417,2.417,0,0,0-.18-.96,1.78,1.78,0,0,0-.51-.69,2.057,2.057,0,0,0-.77-.43A3.645,3.645,0,0,0,56.4,8a2.954,2.954,0,0,0-1,.16,2.544,2.544,0,0,0-.79.45,2.248,2.248,0,0,0-.51.67,1.993,1.993,0,0,0-.18.85h1.3a1.063,1.063,0,0,1,.09-.45.94.94,0,0,1,.25-.34,1.185,1.185,0,0,1,.38-.22,1.464,1.464,0,0,1,.48-.08,1.147,1.147,0,0,1,.89.31,1.208,1.208,0,0,1,.29.86,1.525,1.525,0,0,1-.08.49.87.87,0,0,1-.25.37,1.268,1.268,0,0,1-.41.24,1.683,1.683,0,0,1-.58.09h-.77v1.03h.77a2.246,2.246,0,0,1,.6.07,1.2,1.2,0,0,1,.45.23,1.178,1.178,0,0,1,.29.4,1.417,1.417,0,0,1,.1.57,1.2,1.2,0,0,1-.35.93A1.281,1.281,0,0,1,56.415,14.96Zm8.55-5.92a3.33,3.33,0,0,0-1.14-.77A3.849,3.849,0,0,0,62.355,8h-2.36v8h2.3a4.059,4.059,0,0,0,1.51-.27,3.3,3.3,0,0,0,1.16-.76,3.375,3.375,0,0,0,.74-1.19,4.575,4.575,0,0,0,.26-1.57v-.4a4.575,4.575,0,0,0-.26-1.57A3.33,3.33,0,0,0,64.965,9.04Zm-.39,3.16a4.368,4.368,0,0,1-.14,1.13,2.431,2.431,0,0,1-.43.85,1.869,1.869,0,0,1-.71.53,2.57,2.57,0,0,1-.99.18H61.4V9.12h.97A1.984,1.984,0,0,1,64,9.81a3.046,3.046,0,0,1,.57,1.99ZM60.005,0l-.66.03,3.81,3.81,1.33-1.33a10.47,10.47,0,0,1,5.96,8.48h1.5A11.977,11.977,0,0,0,60.005,0Z" transform="translate(195 366)"/>
    <path d="M117,11h-1.5v-.5h-2v3h2V13H117v1a1,1,0,0,1-1,1h-3a1,1,0,0,1-1-1V10a1,1,0,0,1,1-1h3a1,1,0,0,1,1,1Zm-13-1v5h-1.5V13.5h-2V15H99V10a1,1,0,0,1,1-1h3A1,1,0,0,1,104,10Zm-1.5.5h-2V12h2Zm7,1.5a1,1,0,0,1,1,1v1a1,1,0,0,1-1,1h-4V9h4a1,1,0,0,1,1,1v1A1,1,0,0,1,109.5,12ZM107,10.5v.75h2V10.5Zm2,2.25h-2v.75h2Z" transform="translate(195 366)"/>
    <path d="M156,2a2,2,0,1,1-2,2A2.006,2.006,0,0,1,156,2Zm9,7h-6V22h-2V16h-2v6h-2V9h-6V7h18Z" transform="translate(195 366)"/>
    <path d="M212.5,6A34,34,0,0,1,204,7a34,34,0,0,1-8.5-1L195,8a35.449,35.449,0,0,0,6,1V22h2V16h2v6h2V9a35.449,35.449,0,0,0,6-1ZM204,6a2,2,0,1,0-2-2A2.006,2.006,0,0,0,204,6Z" transform="translate(195 366)"/>
    <path d="M252,6a2,2,0,1,0-2-2A2,2,0,0,0,252,6Z" transform="translate(195 366)"/>
    <path d="M259,13V11a5.615,5.615,0,0,1-4.07-1.83l-1.29-1.43a1.934,1.934,0,0,0-.61-.45c-.01,0-.01-.01-.02-.01H253a2,2,0,0,0-1.19-.26A2.039,2.039,0,0,0,250,9.09V15a2.006,2.006,0,0,0,2,2h5v5h2V16.5a2.006,2.006,0,0,0-2-2h-3V11.05A8.531,8.531,0,0,0,259,13Zm-9,7a3,3,0,0,1-1-5.83V12.1a5,5,0,1,0,5.9,5.9h-2.07A3,3,0,0,1,250,20Z" transform="translate(195 366)"/>
    <path d="M343,11h-2v7h2Zm6,0h-2v7h2Zm8.5,9h-19v2h19ZM355,11h-2v7h2Zm-7-6.74L353.21,7H342.79ZM348,2l-9.5,5V9h19V7Z" transform="translate(195 366)"/>
    <path d="M404.5,7.28V5a2.006,2.006,0,0,0-2-2h-14a2,2,0,0,0-2,2V19a2,2,0,0,0,2,2h14a2.006,2.006,0,0,0,2-2V16.72a2,2,0,0,0,1-1.72V9A2,2,0,0,0,404.5,7.28ZM403.5,9v6h-7V9Zm-15,10V5h14V7h-6a2.006,2.006,0,0,0-2,2v6a2.006,2.006,0,0,0,2,2h6v2Z" transform="translate(195 366)"/>
    <path d="M399.5,13.5A1.5,1.5,0,1,0,398,12,1.5,1.5,0,0,0,399.5,13.5Z" transform="translate(195 366)"/>
    <path d="M451,3H437a2.006,2.006,0,0,0-2,2V19a2.006,2.006,0,0,0,2,2h14a2.006,2.006,0,0,0,2-2V5A2.006,2.006,0,0,0,451,3Zm-2,16H439v-.24a7.982,7.982,0,0,1,10,0Zm2-1.14a10,10,0,0,0-14,0V5h14ZM444,13a3.5,3.5,0,1,0-3.5-3.5A3.5,3.5,0,0,0,444,13Zm0-5a1.5,1.5,0,1,1-1.5,1.5A1.5,1.5,0,0,1,444,8Z" transform="translate(195 366)"/>
  </g>
</svg>
